Coordinates
version=1
nRows=4
nColumns=107
inDegrees=yes

Units are S.I. units (second, meters, Newtons, ...)
If the header above contains a line with 'inDegrees', this indicates whether rotational values are in degrees (yes) or radians (no).

endheader
time	sternoclavicular_r2	sternoclavicular_r3	unrotscap_r3	unrotscap_r2	acromioclavicular_r2	acromioclavicular_r3	acromioclavicular_r1	unrothum_r1	unrothum_r3	unrothum_r2	elv_angle	shoulder_elv	shoulder1_r2	shoulder_rot	elbow_flexion	pro_sup	deviation	flexion	proximal_distal_r1	proximal_distal_r3	cmc_flexion	cmc_abduction	mp_flexion	ip_flexion	mcp2_flexion	mcp2_abduction	pm2_flexion	md2_flexion	mcp3_flexion	mcp3_abduction	pm3_flexion	md3_flexion	mcp4_flexion	mcp4_abduction	pm4_flexion	md4_flexion	mcp5_flexion	mcp5_abduction	pm5_flexion	md5_flexion	bicpt_tx	bicpt_ty	bicpt_tz	bicpt2_tx	bicpt2_ty	bicpt2_tz	ptpt_tx	ptpt_ty	ptpt_tz	FCUpt_tx	FCUpt_ty	FCUpt_tz	EDCpt_tx	EDCpt_ty	EDCpt_tz	APLpt_tx	APLpt_ty	APLpt_tz	FPLpt_tx	FPLpt_ty	FPLpt_tz	FPLpt2_tx	FPLpt2_ty	FPLpt2_tz	PEC1pt2_tx	PEC1pt2_ty	PEC1pt2_tz	PEC1pt3_tx	PEC1pt3_ty	PEC1pt3_tz	PEC2pt2_tx	PEC2pt2_ty	PEC2pt2_tz	PEC2pt3_tx	PEC2pt3_ty	PEC2pt3_tz	PEC3pt2_tx	PEC3pt2_ty	PEC3pt2_tz	PEC3pt3_tx	PEC3pt3_ty	PEC3pt3_tz	DELT2pt2a_tx	DELT2pt2a_ty	DELT2pt2a_tz	DELT2pt2_tx	DELT2pt2_ty	DELT2pt2_tz	LAT1pt2_tx	LAT1pt2_ty	LAT1pt2_tz	LAT1pt3_tx	LAT1pt3_ty	LAT1pt3_tz	LAT2pt2_tx	LAT2pt2_ty	LAT2pt2_tz	LAT2pt3_tx	LAT2pt3_ty	LAT2pt3_tz	LAT3pt2_tx	LAT3pt2_ty	LAT3pt2_tz	LAT3pt3_tx	LAT3pt3_ty	LAT3pt3_tz
      1.40000000	     -0.30420044	      0.12884495	     -0.12884495	      0.30420044	     -0.06159440	      0.49778429	      0.22375061	     -0.22375061	     -0.49778429	      0.06159440	    105.68623342	     72.02215834	     -1.84457275	    -52.53910142	     31.39506437	     67.73125692	      0.27210759	      0.16448231	      0.30868410	      0.08224116	     28.43862949	     -8.34889948	    -23.41583687	     -2.84280580	     -3.74507645	     11.61276546	     23.44349244	      3.40777289	      3.33009180	      2.14315870	     15.73627665	     16.91196804	     -1.87690452	     -3.43686224	     15.11922896	     22.33561483	     -7.74344446	    -14.03788665	     16.01796623	      5.14687254	      0.00093845	     -0.03119835	     -0.00487960	      0.01574655	     -0.01872862	     -0.00397055	      0.00254542	     -0.06813604	     -0.00550612	      0.01069086	     -0.18280901	     -0.00029371	     -0.00812773	      0.00262700	     -0.00026106	     -0.00019095	     -0.00007638	     -0.00038189	     -0.00024441	     -0.00073323	     -0.00041244	     -0.00000621	     -0.00026166	     -0.00031399	      0.00236073	      0.00828256	      0.00576178	     -0.00772238	      0.01864575	     -0.01768546	      0.00236073	      0.00828256	      0.00576178	      0.00052016	      0.01728533	     -0.00908280	      0.00378789	      0.00460582	      0.01556323	      0.00000000	      0.00693224	      0.00000000	     -0.00676209	     -0.03124964	     -0.00571075	      0.02547212	     -0.00157773	     -0.02086751	     -0.00084026	      0.01408435	     -0.00576178	      0.00232072	      0.02032627	     -0.01680518	     -0.00564174	      0.01220376	     -0.00516159	     -0.01176363	      0.02576795	     -0.02884890	     -0.02208681	      0.01364421	     -0.00692214	     -0.01464452	      0.02976918	     -0.03605112
      1.43333333	     -0.31041754	      0.13147822	     -0.13147822	      0.31041754	     -0.06285324	      0.50795776	      0.22832352	     -0.22832352	     -0.50795776	      0.06285324	    102.56366622	     73.49411205	     -1.79007367	    -40.21264096	     30.39940858	     54.08872192	      0.33372151	      0.18852529	      0.36175006	      0.09426264	     25.88724375	     -6.21212918	    -20.79436734	     -3.63911923	     -1.43621369	     10.69962191	     21.74195355	     -0.79818408	      4.08005821	      0.68824868	     12.76999928	     15.14882616	     -2.15946921	     -4.41368657	     10.90220756	     22.69282628	     -9.90651288	    -14.11079381	     12.19613806	      5.21226314	      0.00090552	     -0.03108424	     -0.00486122	      0.01637368	     -0.01845815	     -0.00582689	      0.00355345	     -0.06748423	     -0.00440714	      0.00922930	     -0.18317380	     -0.00041169	     -0.00649063	      0.00198399	     -0.00000851	     -0.00022265	     -0.00008906	     -0.00044530	     -0.00028499	     -0.00085498	     -0.00048093	     -0.00000157	     -0.00027488	     -0.00032985	      0.00240898	      0.00845183	      0.00587953	     -0.00788021	      0.01902683	     -0.01804690	      0.00240898	      0.00845183	      0.00587953	      0.00053079	      0.01763860	     -0.00926843	      0.00384545	      0.00469996	      0.01571167	      0.00000000	      0.00722021	      0.00000000	     -0.00690029	     -0.03188831	     -0.00595007	      0.02270775	     -0.00111861	     -0.01304102	     -0.00085743	      0.01437219	     -0.00587953	      0.00236815	      0.02074169	     -0.01714864	     -0.00575704	      0.01245318	     -0.00526708	     -0.01200405	      0.02629458	     -0.02943850	     -0.02253821	      0.01392306	     -0.00706361	     -0.01494382	      0.03037759	     -0.03678792
      1.46666667	     -0.30445451	      0.12895256	     -0.12895256	      0.30445451	     -0.06164585	      0.49820004	      0.22393749	     -0.22393749	     -0.49820004	      0.06164585	    105.59728910	     72.08231188	     -1.84302038	    -52.15927429	     31.36198960	     67.68476582	      0.28044381	      0.19765002	      0.31622720	      0.09882501	     28.72543982	     -8.39140249	    -21.64354830	      0.73833098	     -3.54013764	     11.28409147	     22.86256671	     -4.60047812	      3.61681814	      1.39114439	     12.52422818	     14.32334000	      0.28446350	     -3.63094330	      6.59535703	     20.95637087	     -5.91412948	    -14.03703423	      7.79327624	      5.23576474	      0.00093736	     -0.03119456	     -0.00487899	      0.01574943	     -0.01871964	     -0.00397734	      0.00254886	     -0.06813382	     -0.00550237	      0.01068578	     -0.18281034	     -0.00029436	     -0.00812215	      0.00262470	     -0.00026002	     -0.00023494	     -0.00009398	     -0.00046988	     -0.00030072	     -0.00090216	     -0.00050747	     -0.00000667	     -0.00025973	     -0.00031167	      0.00236270	      0.00828947	      0.00576659	     -0.00772883	      0.01866133	     -0.01770023	      0.00236270	      0.00828947	      0.00576659	      0.00052059	      0.01729977	     -0.00909039	      0.00379025	      0.00460967	      0.01556940	      0.00000000	      0.00694389	      0.00000000	     -0.00676773	     -0.03127574	     -0.00572044	      0.02541738	     -0.00156340	     -0.02061384	     -0.00084096	      0.01409611	     -0.00576659	      0.00232265	      0.02034325	     -0.01681922	     -0.00564645	      0.01221396	     -0.00516590	     -0.01177345	      0.02578947	     -0.02887299	     -0.02210526	      0.01365561	     -0.00692792	     -0.01465675	      0.02979405	     -0.03608123
      1.50000000	     -0.31301421	      0.13257804	     -0.13257804	      0.31301421	     -0.06337901	      0.51220686	      0.23023346	     -0.23023346	     -0.51220686	      0.06337901	    101.64187978	     74.10889597	     -1.77398546	    -36.12628579	     30.01757864	     48.81125436	      0.34218049	      0.17015278	      0.36855081	      0.08507639	     25.34927365	     -5.48199363	    -21.55807505	      1.88634108	      0.01198206	     10.21704520	     21.37832656	     -6.92351748	      4.19109250	      0.05848265	     11.78399733	     13.36978171	     -1.12950354	     -4.65552266	      5.49280534	     20.26380481	    -10.19042041	    -14.09973699	      6.82919198	      5.23876275	      0.00089289	     -0.03104047	     -0.00485417	      0.01650207	     -0.01835442	     -0.00647499	      0.00394340	     -0.06723209	     -0.00398201	      0.00867932	     -0.18330075	     -0.00041974	     -0.00585734	      0.00175066	      0.00006213	     -0.00019833	     -0.00007933	     -0.00039666	     -0.00025386	     -0.00076159	     -0.00042840	     -0.00000048	     -0.00027675	     -0.00033210	      0.00242913	      0.00852253	      0.00592872	     -0.00794613	      0.01918599	     -0.01819787	      0.00242913	      0.00852253	      0.00592872	      0.00053523	      0.01778615	     -0.00934596	      0.00386925	      0.00473927	      0.01577209	      0.00000000	      0.00734228	      0.00000000	     -0.00695801	     -0.03215505	     -0.00605148	      0.02134285	     -0.00097114	     -0.01069601	     -0.00086460	      0.01449242	     -0.00592872	      0.00238796	      0.02091519	     -0.01729209	     -0.00580520	      0.01255735	     -0.00531114	     -0.01210446	      0.02651454	     -0.02968476	     -0.02272675	      0.01403953	     -0.00712269	     -0.01506882	      0.03063170	     -0.03709565
